<svg width="208" height="50" viewBox="0 0 208 50" fill="none" xmlns="http://www.w3.org/2000/svg">
<path d="M75.4826 24.8289C77.6179 24.4548 79.3635 23.882 80.354 22.9352C80.9133 22.5091 81.3628 21.9603 81.666 21.3329C81.9692 20.7054 82.1177 20.0169 82.0997 19.3229C82.0997 15.7106 78.9982 14 72.5925 14H66V36.8114H73.177C74.9947 36.8156 76.8101 36.688 78.6085 36.4295C79.912 36.2242 81.089 35.5452 81.9048 34.5279C82.7538 33.4315 83.2282 32.1006 83.2606 30.7246C83.292 29.9272 83.1331 29.1335 82.7961 28.4069C82.4593 27.6802 81.9539 27.0408 81.3203 26.5395C79.5665 25.4659 77.55 24.875 75.4826 24.8289ZM69.2718 14.9468H72.7631C74.0198 14.8665 75.2792 15.0622 76.449 15.5196C77.1442 15.8146 77.6987 16.3581 77.9996 17.0394C78.4405 17.8555 78.6428 18.7751 78.5842 19.6969C78.5842 21.4075 78.1945 22.5533 77.2284 23.3091C76.2622 24.065 74.7035 24.4549 72.1866 24.4549H69.4667V14.9468H69.2718ZM78.2025 34.9098C77.2364 35.8566 75.8806 36.0475 74.1432 36.0475H69.2718V25.4017H72.5682C75.0931 25.4017 77.0335 25.7837 77.9996 26.7305C78.5379 27.286 78.9534 27.9445 79.2202 28.6646C79.487 29.3847 79.5994 30.151 79.5502 30.9156C79.5837 32.3594 79.1077 33.7702 78.2025 34.9098Z" fill="url(#paint0_linear_2_51)"/>
<path d="M90.6078 19.6968V28.2501V29.5788V31.1064V36.9943H105.936V36.2305H97.0135H94.099V31.1064V29.5788V28.632V28.2501V25.4017H96.4292H102.445V24.6379H96.4292H94.099V20.4606V19.8878V14.9467H97.2086H106.123V14.1829H90.6078V19.6968Z" fill="url(#paint1_linear_2_51)"/>
<path d="M117.376 14.1829H113.884V19.8878V31.1064V36.9943H130.179V36.2305H117.376V14.1829Z" fill="url(#paint2_linear_2_51)"/>
<path d="M152.481 17.2302C150.313 15.276 147.475 14.1915 144.529 14.1915C141.583 14.1915 138.745 15.276 136.576 17.2302C135.421 18.2605 134.512 19.5257 133.909 20.9372C133.305 22.3488 133.025 23.8725 133.085 25.4016C133.024 26.959 133.303 28.5113 133.906 29.9539C134.508 31.3964 135.419 32.6957 136.576 33.764C138.906 35.8565 141.042 36.9943 144.533 36.9943C146.041 37.0428 147.544 36.7803 148.943 36.2239C150.341 35.6674 151.604 34.8293 152.652 33.764C154.982 31.6793 155.956 28.8229 155.956 25.4016C155.956 21.9803 154.812 19.1319 152.481 17.2302ZM150.354 33.581C149.696 34.4272 148.843 35.1096 147.866 35.5727C146.888 36.0358 145.813 36.2666 144.728 36.2464C141.813 36.2464 140.457 35.2916 138.906 33.581C137.551 31.8702 136.771 29.2128 136.771 25.6244C136.771 22.2031 137.583 19.5456 138.906 17.6678C140.457 15.9572 141.627 15.0024 144.338 15.0024C145.483 14.9591 146.623 15.1773 147.667 15.6399C148.711 16.1025 149.632 16.7967 150.354 17.6678C151.905 19.5695 152.1 22.036 152.1 25.4573C152.083 29.0139 151.905 31.6793 150.354 33.581Z" fill="url(#paint3_linear_2_51)"/>
<path d="M179.249 18.1771V31.4804L166.064 14.1829H162.573V19.5058V31.4804V36.4214H163.344V31.4804V15.8935L179.639 36.9943H180.224V18.3681V14.1829H179.249V18.1771Z" fill="url(#paint4_linear_2_51)"/>
<path d="M207.957 27.3031H201.754V28.2579H204.661V31.2972C204.698 32.1553 204.499 33.0074 204.084 33.7638C203.691 34.5609 202.994 35.1752 202.144 35.4744C201.172 35.9401 200.115 36.2106 199.035 36.2701C197.968 36.3061 196.906 36.1018 195.932 35.6728C194.958 35.2439 194.097 34.6016 193.417 33.7957C191.858 32.085 191.086 29.4275 191.086 25.4333C191.086 21.4391 191.858 18.7816 193.417 17.2618C194.148 16.5305 195.022 15.9514 195.988 15.559C196.953 15.1666 197.989 14.9691 199.035 14.9784C200.992 14.9797 202.871 15.7306 204.271 17.0709C204.706 17.4735 205.097 17.9187 205.44 18.3997L206.252 17.604C205.331 16.5789 204.197 15.7594 202.925 15.2008C201.653 14.6422 200.274 14.3573 198.88 14.3657C197.301 14.2969 195.726 14.5872 194.279 15.2139C192.832 15.8405 191.554 16.7865 190.542 17.978C188.55 20.1561 187.507 23.0121 187.635 25.9346C187.597 28.8773 188.705 31.7236 190.737 33.8911C191.783 34.9005 193.028 35.6905 194.396 36.213C195.764 36.7356 197.226 36.9797 198.693 36.9305C200.497 36.8803 202.275 36.4942 203.93 35.7927C204.762 35.3768 205.541 34.8667 206.252 34.273C206.814 33.8486 207.264 33.3001 207.568 32.6723C207.871 32.0445 208.019 31.3552 207.998 30.6607V27.2395L207.957 27.3031Z" fill="url(#paint5_linear_2_51)"/>
<g clip-path="url(#clip0_2_51)">
<path d="M5.38309 34.1299V15.9329C5.38041 15.2982 5.54708 14.6743 5.86591 14.1255C6.18473 13.5767 6.64417 13.1229 7.19685 12.8108L22.9557 3.71229C23.5062 3.39097 24.1321 3.22165 24.7695 3.22165C25.4069 3.22165 26.0328 3.39097 26.5833 3.71229L42.3422 12.8108C42.892 13.1262 43.3491 13.5807 43.6674 14.1288C43.9858 14.6768 44.1543 15.299 44.1559 15.9329V34.1597C44.1586 34.7943 43.9919 35.4183 43.6731 35.967C43.3543 36.5158 42.8948 36.9697 42.3422 37.2817L26.5833 46.3802C26.0328 46.7016 25.4069 46.8709 24.7695 46.8709C24.1321 46.8709 23.5062 46.7016 22.9557 46.3802L7.19685 37.2817C6.64348 36.9629 6.18424 36.5035 5.86571 35.95C5.54718 35.3965 5.38067 34.7686 5.38309 34.1299V34.1299Z" fill="#151515"/>
<path d="M44.5722 15.9031V34.1597C44.5782 34.9187 44.3383 35.6594 43.8883 36.2708C43.5857 36.6823 43.201 37.0266 42.7584 37.2817L33.3923 42.6932L31.2812 43.9123L26.9698 46.41C26.4247 46.7311 25.8036 46.9004 25.1709 46.9004C24.5383 46.9004 23.9171 46.7311 23.372 46.41L18.5552 43.615L16.7711 42.5743L7.58341 37.2817C7.01832 36.9598 6.55478 36.486 6.24539 35.9139C5.9484 35.3772 5.79478 34.773 5.79938 34.1597V15.9031C5.79596 15.3314 5.93929 14.7683 6.21565 14.2678C6.53406 13.6518 7.01804 13.1369 7.61314 12.7811L16.5927 7.57767L18.6444 6.38832L23.4018 3.65282C23.9469 3.33171 24.568 3.16237 25.2007 3.16237C25.8333 3.16237 26.4544 3.33171 26.9996 3.65282L31.2515 6.09098L33.6302 7.45874L42.8179 12.7513C43.2858 13.0215 43.6832 13.3985 43.9775 13.8515C44.366 14.4653 44.5722 15.1767 44.5722 15.9031Z" stroke="black" stroke-width="0.148669" stroke-miterlimit="10"/>
<path d="M24.9776 30.5916C27.9499 30.5916 30.3595 28.1821 30.3595 25.2098C30.3595 22.2375 27.9499 19.828 24.9776 19.828C22.0054 19.828 19.5958 22.2375 19.5958 25.2098C19.5958 28.1821 22.0054 30.5916 24.9776 30.5916Z" stroke="black" stroke-width="0.148669" stroke-miterlimit="10"/>
<path d="M31.3109 43.9123L26.9698 46.41C26.4247 46.7311 25.8036 46.9004 25.1709 46.9004C24.5383 46.9004 23.9171 46.7311 23.372 46.41L18.5552 43.615L16.7711 42.5743L7.58341 37.2817C7.01832 36.9598 6.55478 36.486 6.24539 35.9139C5.9484 35.3772 5.79478 34.773 5.79938 34.1597V15.9031C5.79596 15.3314 5.93929 14.7683 6.21565 14.2678C6.53406 13.6518 7.01804 13.1369 7.61314 12.7811L16.5927 7.57767L18.6444 6.38832L23.4018 3.65282C23.9469 3.33171 24.568 3.16237 25.2007 3.16237C25.8333 3.16237 26.4544 3.33171 26.9996 3.65282L31.2515 6.09098L33.6302 7.45874L42.8179 12.7513C43.2858 13.0215 43.6832 13.3985 43.9775 13.8515C44.3915 14.4438 44.6098 15.1508 44.6019 15.8734V34.1299C44.608 34.889 44.368 35.6296 43.9181 36.241C43.6155 36.6526 43.2307 36.9968 42.7882 37.252L33.422 42.6635L31.3109 43.9123Z" stroke="black" stroke-width="0.148669" stroke-miterlimit="10"/>
<path d="M24.9776 30.5916C24.2603 30.5925 23.5441 30.5329 22.8368 30.4132C22.0167 30.2788 21.2105 30.0698 20.4284 29.7888C19.3811 29.4171 18.3748 28.9389 17.4253 28.3616C16.0024 27.4736 14.6856 26.4261 13.5004 25.2395C11.451 23.159 9.68178 20.82 8.23752 18.2818C7.49417 17.0627 6.8103 15.7247 6.12642 14.3272L6.06695 14.2678L6.09669 14.2083C6.41697 13.5763 6.91244 13.0498 7.52391 12.6919L23.3125 3.56361C23.8791 3.24199 24.5194 3.07291 25.1709 3.07291C25.8224 3.07291 26.4627 3.24199 27.0293 3.56361L42.8179 12.6919C43.292 12.988 43.7057 13.3714 44.037 13.8218L44.0667 13.8812L44.037 13.9407C43.3522 15.4278 42.588 16.8769 41.7475 18.2818C40.2933 20.8213 38.514 23.1602 36.4549 25.2395C35.2713 26.428 33.9542 27.4756 32.53 28.3616C31.5869 28.9507 30.5793 29.4296 29.5269 29.7888C28.7479 30.08 27.9408 30.2892 27.1185 30.4132C26.411 30.5316 25.6949 30.5913 24.9776 30.5916V30.5916ZM6.30482 14.2678C6.93172 15.6008 7.62642 16.9009 8.38619 18.1629C9.83791 20.6703 11.5958 22.9875 13.6193 25.0611C14.7869 26.2467 16.095 27.2852 17.5145 28.1534C18.4537 28.7304 19.4502 29.2087 20.4878 29.5807C21.2641 29.8478 22.0592 30.0565 22.8665 30.2051C24.2639 30.4429 25.6914 30.4429 27.0887 30.2051C27.9021 30.0847 28.6998 29.8753 29.4674 29.5807C30.4955 29.2083 31.482 28.73 32.4111 28.1534C33.8306 27.2852 35.1386 26.2467 36.3062 25.0611C38.3622 23.0084 40.1324 20.6881 41.5691 18.1629C42.3421 16.8546 43.1152 15.3976 43.8288 13.8812C43.5376 13.4704 43.1626 13.1258 42.7287 12.8703L26.9401 3.77174C26.4063 3.46496 25.8014 3.30352 25.1858 3.30352C24.5701 3.30352 23.9652 3.46496 23.4315 3.77174L7.61311 12.9C7.0565 13.2231 6.60287 13.6974 6.30482 14.2678V14.2678Z" fill="#CB99FF"/>
<path d="M16.7414 42.6932L16.6819 42.6635L7.49418 37.3709C6.90258 37.0371 6.41795 36.5422 6.0967 35.9437C5.78694 35.3892 5.62323 34.7651 5.62096 34.1299V15.9031C5.62546 15.2544 5.79757 14.6178 6.12056 14.0552C6.44356 13.4925 6.90649 13.0229 7.46445 12.6919L16.563 7.45874L16.6224 7.48847C17.1577 7.78581 17.6631 8.05342 18.1091 8.35075C20.6396 9.80497 22.9687 11.5843 25.0371 13.6434C26.2274 14.8253 27.2752 16.1426 28.1591 17.5682C28.7417 18.5044 29.2203 19.5015 29.5864 20.5416C29.846 21.2999 30.0546 22.0747 30.2108 22.8608V22.8608V22.95C30.3304 23.6573 30.3901 24.3735 30.3892 25.0909C30.384 25.718 30.3343 26.344 30.2405 26.9641C30.2405 27.0533 30.2108 27.1425 30.2108 27.2614C30.0832 28.083 29.874 28.8898 29.5864 29.6699C29.2041 30.7178 28.7159 31.7241 28.1294 32.673C27.251 34.1025 26.2027 35.4204 25.0074 36.5978C22.939 38.6569 20.6099 40.4362 18.0794 41.8904C17.6929 42.1283 17.2766 42.3662 16.7711 42.6338L16.7414 42.6932ZM16.563 7.72634L7.61312 12.9C7.03807 13.2358 6.57316 13.7317 6.2751 14.3272C6.01177 14.8209 5.87873 15.3735 5.88856 15.9329V34.1894C5.88454 34.7839 6.03845 35.3687 6.33457 35.8842C6.64221 36.4399 7.09422 36.9022 7.64285 37.2222L16.7711 42.4851C17.2469 42.2175 17.6631 41.9796 18.0199 41.7715C20.5351 40.3197 22.8535 38.5509 24.9182 36.5086C26.1038 35.3411 27.1422 34.033 28.0105 32.6135C28.5871 31.6845 29.0654 30.6979 29.4377 29.6699C29.7252 28.8999 29.9343 28.103 30.0621 27.2912C30.0866 27.2042 30.0967 27.1138 30.0918 27.0236C30.1845 26.4133 30.2342 25.7973 30.2405 25.1801C30.2415 24.4726 30.1818 23.7663 30.0621 23.069V23.0095C29.9305 22.2209 29.7315 21.4449 29.4674 20.6903C29.1011 19.6597 28.6225 18.6725 28.0402 17.7466C27.1326 16.3205 26.0761 14.9949 24.8884 13.792C22.816 11.7587 20.4988 9.99082 17.9902 8.52916C17.5442 8.29129 17.0685 7.99395 16.563 7.72634Z" fill="#CB99FF"/>
<path d="M33.3923 42.8122L33.3328 42.7825C32.8571 42.5149 32.3219 42.2175 31.8164 41.9202C29.294 40.4539 26.9663 38.6757 24.8884 36.6276C23.7 35.444 22.6523 34.1269 21.7664 32.7027C21.1773 31.7596 20.6984 30.752 20.3392 29.6996C20.0479 28.9105 19.8386 28.0934 19.7148 27.2614C19.5963 26.554 19.5367 25.8379 19.5364 25.1206C19.5457 23.5601 19.8171 22.0122 20.3392 20.5416C20.7167 19.4968 21.1947 18.491 21.7664 17.5385C22.6448 16.109 23.6931 14.7911 24.8884 13.6136C26.9706 11.5704 29.2976 9.79264 31.8164 8.32103C32.3813 7.99396 32.9463 7.66688 33.541 7.36955L33.6004 7.33981L42.8476 12.6919C43.3218 12.9881 43.7354 13.3715 44.0667 13.8218C44.4864 14.4353 44.7141 15.1598 44.7209 15.9031V34.1597C44.7168 34.812 44.5417 35.4519 44.213 36.0154C43.8843 36.5789 43.4135 37.0463 42.8476 37.3709L33.3923 42.8122ZM33.6004 7.60742C33.0355 7.90475 32.4705 8.23183 31.9353 8.52916C29.4267 9.99082 27.1095 11.7587 25.0371 13.792C23.8515 14.9596 22.813 16.2677 21.9448 17.6872C21.3739 18.6193 20.8958 19.6052 20.5176 20.6308C20.2299 21.4109 20.0208 22.2177 19.8932 23.0392C19.6553 24.4366 19.6553 25.8641 19.8932 27.2614C20.0136 28.0748 20.223 28.8725 20.5176 29.6401C20.8899 30.6682 21.3682 31.6547 21.9448 32.5838C22.8281 33.9927 23.8653 35.299 25.0371 36.4789C27.1053 38.5171 29.4232 40.2855 31.9353 41.7418C32.4408 42.0391 32.9166 42.3067 33.3923 42.5743L42.699 37.1925C43.122 36.946 43.4871 36.6114 43.7694 36.2113C44.2056 35.6172 44.4354 34.8966 44.4235 34.1597V15.9031C44.4321 15.1988 44.2131 14.5106 43.7991 13.9407C43.4986 13.5113 43.1143 13.1471 42.6692 12.8703L33.6004 7.60742Z" fill="#CB99FF"/>
<path d="M16.8306 33.3271C13.9392 33.2965 11.0627 32.907 8.26727 32.1675C7.52392 31.9891 6.72111 31.7512 5.76963 31.4539L5.68043 31.4241V15.9031C5.68494 15.2544 5.85704 14.6178 6.18004 14.0552C6.50304 13.4925 6.96597 13.0229 7.52392 12.6919L23.3126 3.56361C23.8791 3.24199 24.5194 3.07291 25.1709 3.07291C25.8224 3.07291 26.4627 3.24199 27.0293 3.56361L31.3109 6.03151V6.06124C31.5488 6.83432 31.7867 7.6074 31.9651 8.38048C32.7321 11.1906 33.122 14.0903 33.1247 17.0033V17.0033C33.1266 18.6844 32.9371 20.3603 32.5598 21.9985C32.3018 23.0705 31.9435 24.1159 31.4893 25.1206V25.1503C31.121 25.9064 30.6935 26.6322 30.2108 27.3209C30.1513 27.4101 30.0621 27.4993 30.0026 27.5885V27.648H29.9432C29.5924 28.1058 29.2152 28.5426 28.8133 28.9562C28.5754 29.1941 28.3078 29.432 28.07 29.6401C27.7832 29.9034 27.4749 30.1421 27.1482 30.3537C26.4697 30.8362 25.7538 31.2637 25.0074 31.6323H24.9776C23.9903 32.1039 22.953 32.4629 21.8853 32.7027C20.2496 33.0946 18.572 33.2843 16.8901 33.2676C16.8603 33.3271 16.8603 33.3271 16.8306 33.3271ZM5.88857 31.2457C6.81031 31.5431 7.58339 31.7512 8.297 31.9296C11.082 32.6709 13.9488 33.0605 16.8306 33.0892H16.8901C18.5614 33.0912 20.2274 32.9016 21.8556 32.5243C22.9194 32.271 23.9552 31.9125 24.9479 31.4539H24.9776C25.708 31.1019 26.4047 30.6839 27.059 30.2051C27.3816 30.0005 27.6807 29.7612 27.951 29.4914C28.1889 29.2833 28.4268 29.0752 28.6944 28.8076C29.0957 28.4039 29.473 27.977 29.8242 27.529V27.529V27.4993L29.854 27.4398L30.0324 27.1722C30.5114 26.5076 30.9294 25.801 31.2812 25.0611V25.0314C31.7398 24.0387 32.0984 23.0028 32.3516 21.9391C32.729 20.321 32.9186 18.6648 32.9166 17.0033V17.0033C32.886 14.1118 32.4965 11.2354 31.7569 8.43994C31.5488 7.6966 31.3407 6.92352 31.1028 6.15045L26.9103 3.71228C26.3766 3.40549 25.7717 3.24405 25.156 3.24405C24.5404 3.24405 23.9355 3.40549 23.4018 3.71228L7.61313 12.9C7.03807 13.2358 6.57317 13.7317 6.27511 14.3272C6.01178 14.8208 5.87874 15.3735 5.88857 15.9329V31.2457Z" fill="#CB99FF"/>
<path d="M25.1858 47.0046C24.5285 46.9982 23.8838 46.8242 23.3125 46.4992L18.4362 43.7042V43.6745C18.2578 43.0203 18.0794 42.4257 17.9307 41.8904C17.1764 39.0777 16.7867 36.1797 16.7711 33.2677C16.7692 31.5865 16.9587 29.9106 17.3361 28.2724C17.5905 27.1955 17.9593 26.1489 18.4362 25.1503V25.1206C18.7868 24.3645 19.2153 23.647 19.7148 22.9798C20.1391 22.3912 20.6062 21.8347 21.1122 21.3147C21.6258 20.8016 22.1829 20.334 22.7773 19.9172C23.4558 19.4348 24.1717 19.0072 24.9182 18.6386H24.9479C25.9353 18.167 26.9726 17.808 28.0402 17.5682C29.6759 17.1763 31.3535 16.9866 33.0355 17.0033H33.1544C36.0359 17.0359 38.9023 17.4254 41.688 18.1629C42.6097 18.4008 43.591 18.6981 44.6019 19.0252L44.6911 19.0549V34.2191C44.6871 34.8715 44.512 35.5114 44.1833 36.0749C43.8546 36.6384 43.3838 37.1058 42.8179 37.4304L27.0293 46.5586C26.4542 46.8387 25.8253 46.9909 25.1858 47.0046V47.0046ZM18.6443 43.5555L23.4315 46.3208C23.9652 46.6276 24.5701 46.789 25.1858 46.789C25.8014 46.789 26.4063 46.6276 26.9401 46.3208L42.7287 37.1925C43.1517 36.946 43.5168 36.6114 43.7991 36.2113C44.2353 35.6172 44.4651 34.8966 44.4532 34.1597V19.1441C43.472 18.817 42.5205 18.5494 41.6285 18.3116C38.8634 17.5724 36.0165 17.1829 33.1544 17.152H33.0355C31.374 17.15 29.7178 17.3395 28.0997 17.7169C27.0359 17.9701 26 18.3287 25.0074 18.7873H24.9776C24.2472 19.1393 23.5506 19.5573 22.8963 20.0361C22.3177 20.4505 21.7711 20.9077 21.2609 21.4039C20.7563 21.9064 20.2985 22.4537 19.8932 23.0392C19.4207 23.6978 19.0031 24.3939 18.6443 25.1206V25.1503C18.1857 26.143 17.8272 27.1789 17.5739 28.2426C17.1965 29.8607 17.007 31.5169 17.009 33.1785C17.0413 36.0795 17.4308 38.9656 18.1686 41.7715C18.2875 42.3364 18.4659 42.9014 18.6443 43.5555Z" fill="#CB99FF"/>
<path d="M25.1858 47.0046C24.5285 46.9982 23.8838 46.8242 23.3125 46.4992L7.52392 37.3709C6.93232 37.0371 6.44768 36.5422 6.12643 35.9437C5.81667 35.3892 5.65297 34.7651 5.65069 34.1299V18.8468L5.73989 18.817C6.69138 18.5197 7.49419 18.2818 8.23753 18.1034C11.0506 17.351 13.9484 16.9613 16.8603 16.9438C18.5415 16.9419 20.2173 17.1315 21.8556 17.5088C22.9325 17.7632 23.9791 18.132 24.9776 18.6089H25.0074C25.7635 18.9595 26.481 19.388 27.1482 19.8875C27.2046 19.9177 27.255 19.958 27.2969 20.0064C27.8311 20.3973 28.3377 20.8245 28.8133 21.2849C29.3264 21.7985 29.794 22.3556 30.2108 22.95V22.95C30.2269 22.9661 30.2374 22.987 30.2405 23.0095C30.7108 23.6798 31.1283 24.3856 31.4893 25.1206V25.1503C31.9435 26.1551 32.3018 27.2004 32.5597 28.2724C32.9499 29.9084 33.1396 31.5858 33.1247 33.2677V33.2677C33.0925 36.1785 32.703 39.0745 31.9651 41.8904C31.7867 42.5446 31.6083 43.2582 31.3704 43.9718V44.0015L26.9995 46.5289C26.4436 46.8351 25.8204 46.9986 25.1858 47.0046ZM5.88856 19.0252V34.1597C5.88454 34.7541 6.03846 35.339 6.33457 35.8545C6.64221 36.4102 7.09422 36.8725 7.64286 37.1925L23.4315 46.3208C23.9652 46.6276 24.5701 46.789 25.1858 46.789C25.8014 46.789 26.4063 46.6276 26.9401 46.3208L31.2217 43.8529C31.4299 43.169 31.638 42.4851 31.7867 41.831C32.539 39.028 32.9287 36.1401 32.9463 33.2379V33.2379C32.9483 31.5764 32.7587 29.9202 32.3813 28.3021C32.1281 27.2384 31.7695 26.2025 31.3109 25.2098V25.1801C30.9644 24.4624 30.5565 23.7759 30.0918 23.1284L30.0621 23.0987C29.6492 22.519 29.1919 21.9723 28.6944 21.4633C28.2277 21.0046 27.7311 20.5775 27.2077 20.1848C27.1482 20.1551 27.1185 20.0956 27.059 20.0956C26.3944 19.6166 25.6878 19.1986 24.9479 18.8468H24.9182C23.9255 18.3882 22.8896 18.0296 21.8259 17.7764C20.2078 17.399 18.5516 17.2094 16.8901 17.2114H16.8306C13.9489 17.2421 11.0823 17.6316 8.297 18.371C7.48215 18.5421 6.67797 18.7605 5.88856 19.0252V19.0252Z" fill="#CB99FF"/>
<path d="M33.1842 33.3271H33.0652C31.384 33.3307 29.7079 33.1412 28.07 32.7622C27.0048 32.5136 25.9685 32.1549 24.9777 31.6917H24.9479C24.1918 31.3412 23.4743 30.9127 22.8071 30.4132C22.2186 29.9888 21.662 29.5217 21.142 29.0157C20.6289 28.5021 20.1613 27.945 19.7445 27.3506C19.2621 26.6721 18.8345 25.9563 18.466 25.2098V25.1801C17.9928 24.18 17.6242 23.1338 17.3658 22.058C16.9654 20.4233 16.7657 18.7458 16.7711 17.0627C16.7995 14.1516 17.189 11.2552 17.9308 8.43994C18.1092 7.75607 18.2876 7.07219 18.4957 6.38832V6.35858L23.3126 3.56361C23.8791 3.24199 24.5194 3.07291 25.1709 3.07291C25.8224 3.07291 26.4627 3.24199 27.0293 3.56361L42.8179 12.6919C43.292 12.988 43.7057 13.3714 44.037 13.8218C44.4567 14.4353 44.6844 15.1598 44.6911 15.9031V31.2755L44.6019 31.3052C43.591 31.6323 42.6098 31.9296 41.688 32.1675C38.9124 32.9049 36.0559 33.2944 33.1842 33.3271V33.3271ZM25.0074 31.4539C26.001 31.9177 27.0364 32.2861 28.0997 32.554C29.725 32.9477 31.393 33.1374 33.0652 33.119C35.9663 33.0866 38.8524 32.6972 41.6583 31.9594C42.58 31.7215 43.5315 31.4539 44.483 31.1268V15.9031C44.4916 15.1988 44.2726 14.5105 43.8586 13.9407C43.5581 13.5112 43.1738 13.1471 42.7287 12.8703L26.9401 3.77174C26.4063 3.46496 25.8014 3.30352 25.1858 3.30352C24.5701 3.30352 23.9653 3.46496 23.4315 3.77174L18.7336 6.47752C18.5254 7.13166 18.347 7.7858 18.1686 8.46968C17.427 11.2748 17.0375 14.1614 17.009 17.0627C17.007 18.7242 17.1966 20.3805 17.5739 21.9985C17.8272 23.0623 18.1858 24.0982 18.6444 25.0909V25.1206C18.9964 25.851 19.4144 26.5476 19.8932 27.202C20.3076 27.7805 20.7648 28.3271 21.2609 28.8373C21.7634 29.3419 22.3108 29.7997 22.8963 30.2051C23.5609 30.6841 24.2675 31.1021 25.0074 31.4539V31.4539Z" fill="#CB99FF"/>
<path d="M24.9776 47.3318C24.2782 47.3302 23.5914 47.1457 22.9855 46.7966L7.22657 37.698C6.62269 37.3466 6.12116 36.8435 5.77171 36.2385C5.42227 35.6335 5.23704 34.9476 5.2344 34.2489V16.0221C5.23704 15.3235 5.42227 14.6376 5.77171 14.0326C6.12116 13.4276 6.62269 12.9244 7.22657 12.573L22.9855 3.47448C23.5909 3.12391 24.278 2.9393 24.9776 2.9393C25.6772 2.9393 26.3644 3.12391 26.9698 3.47448L42.7287 12.573C43.3326 12.9244 43.8341 13.4276 44.1835 14.0326C44.533 14.6376 44.7182 15.3235 44.7208 16.0221V34.2489C44.7182 34.9476 44.533 35.6335 44.1835 36.2385C43.8341 36.8435 43.3326 37.3466 42.7287 37.698L26.9698 46.7966C26.3653 47.1494 25.6775 47.3342 24.9776 47.3318ZM24.9776 3.68262C24.4025 3.68272 23.8378 3.83671 23.3423 4.12863L7.58337 13.2272C7.08568 13.5117 6.6722 13.9229 6.38496 14.4191C6.09772 14.9152 5.94696 15.4786 5.94801 16.0519V34.2787C5.94938 34.8515 6.10116 35.4139 6.38816 35.9096C6.67515 36.4053 7.08731 36.817 7.58337 37.1034L23.3423 46.2019C23.8371 46.4798 24.3952 46.6258 24.9628 46.6258C25.5303 46.6258 26.0884 46.4798 26.5832 46.2019L42.3421 37.1034C42.8398 36.8188 43.2533 36.4076 43.5405 35.9114C43.8278 35.4153 43.9785 34.8519 43.9775 34.2787V16.0221C43.9761 15.4493 43.8243 14.8869 43.5373 14.3912C43.2504 13.8955 42.8382 13.4838 42.3421 13.1974L26.5832 4.09889C26.092 3.8262 25.5395 3.68295 24.9776 3.68262V3.68262Z" fill="url(#paint6_linear_2_51)"/>
<path d="M30.746 25.0909C30.7108 26.622 30.0691 28.0765 28.962 29.1347C28.4266 29.6511 27.7925 30.0542 27.0976 30.3199C26.4028 30.5855 25.6615 30.7083 24.9182 30.6808C24.1903 30.6606 23.4733 30.4991 22.8071 30.2051C22.1541 29.907 21.5599 29.4941 21.0528 28.986C20.5524 28.4736 20.1583 27.8673 19.8932 27.202C19.6213 26.5416 19.48 25.8348 19.4769 25.1206C19.4818 23.6679 20.0462 22.2729 21.0528 21.2255C22.0827 20.1734 23.4767 19.5562 24.9479 19.5009C25.6928 19.4816 26.4342 19.611 27.1285 19.8816C27.8229 20.1522 28.4563 20.5585 28.9917 21.0768C29.5477 21.5866 29.9911 22.2071 30.2932 22.8984C30.5953 23.5897 30.7495 24.3365 30.746 25.0909V25.0909ZM29.4972 25.0909C29.4922 24.4914 29.3815 23.8975 29.1701 23.3366C28.9576 22.7725 28.634 22.2569 28.2186 21.8201C27.797 21.373 27.2907 21.0139 26.7293 20.7638C26.1679 20.5137 25.5624 20.3775 24.9479 20.3632C23.6816 20.3392 22.4555 20.8084 21.5285 21.6715C20.8401 22.3369 20.3684 23.1945 20.1752 24.1323C19.9821 25.0701 20.0763 26.0443 20.4457 26.9276C20.8151 27.811 21.4424 28.5623 22.2457 29.0834C23.0489 29.6044 23.9907 29.871 24.9479 29.8483C25.5648 29.8316 26.172 29.6914 26.7338 29.4361C27.2955 29.1807 27.8004 28.8153 28.2186 28.3616C28.6377 27.9282 28.9665 27.4159 29.186 26.8545C29.4055 26.293 29.5112 25.6935 29.4972 25.0909V25.0909Z" fill="url(#paint7_linear_2_51)"/>
<path d="M43.7991 36.2708C43.7694 36.3005 43.7694 36.3302 43.7396 36.3897L43.6802 36.4492L43.5612 36.5681C43.4896 36.6547 43.41 36.7343 43.3234 36.806C43.1523 36.9539 42.9736 37.0928 42.7882 37.2222C42.4016 37.4601 41.9854 37.6682 41.5988 37.9061L39.2201 39.2739L34.4924 42.0094L29.7648 44.7449L27.3861 46.1126C26.9988 46.356 26.5908 46.5649 26.167 46.737C25.7267 46.8837 25.2624 46.9442 24.7992 46.9154C24.3337 46.8884 23.8784 46.767 23.4612 46.5586C23.045 46.3505 22.6584 46.1126 22.2719 45.8748L19.8932 44.507L15.1655 41.7715L10.4378 39.036L8.05914 37.6683C7.64895 37.4595 7.26051 37.2105 6.89952 36.9249C6.54026 36.6246 6.23809 36.262 6.00751 35.8545V35.8545L5.97778 35.8248L6.00751 35.795C6.85921 33.7695 7.86312 31.8114 9.01062 29.9375C10.1686 28.0451 11.5241 26.2809 13.0544 24.6746C14.604 23.0416 16.4123 21.6753 18.4065 20.6308C19.4274 20.1117 20.505 19.7126 21.6177 19.4415L22.4503 19.263C22.7352 19.2068 23.0231 19.1671 23.3126 19.1441C23.5972 19.0947 23.8861 19.0748 24.1748 19.0846C24.4616 19.0599 24.7494 19.05 25.0371 19.0549C26.1904 19.0696 27.338 19.2193 28.4565 19.5009C29.5691 19.7993 30.6459 20.218 31.6677 20.7497C33.6797 21.805 35.4992 23.1923 37.0496 24.853C37.8204 25.664 38.5451 26.5177 39.2201 27.4101C39.8743 28.3021 40.4987 29.2536 41.0636 30.1753C41.6286 31.0971 42.134 32.108 42.6098 33.119C42.8476 33.6245 43.0558 34.1299 43.2639 34.6354C43.3759 34.888 43.4752 35.146 43.5612 35.4085L43.7099 35.795L43.7991 36.0032V36.2708ZM43.6504 36.2708L43.5315 36.1221C43.5018 36.0626 43.472 36.0329 43.4423 35.9734L43.2342 35.6166L42.8179 34.903L41.9556 33.5055C41.3609 32.5838 40.7663 31.6918 40.1419 30.7998C39.5175 29.9077 38.8633 29.0752 38.1794 28.2426C37.5028 27.4176 36.7781 26.6332 36.0089 25.8937C34.5315 24.3832 32.8381 23.1006 30.9839 22.0878C30.5224 21.8397 30.0458 21.6212 29.5566 21.4336C29.0809 21.2552 28.5754 21.0768 28.07 20.9281C27.0702 20.6593 26.0422 20.5096 25.0074 20.4821C24.7493 20.4772 24.4912 20.4871 24.2343 20.5119C23.9756 20.5157 23.7174 20.5356 23.4612 20.5713L22.6881 20.6605C22.4279 20.6957 22.1698 20.7454 21.9151 20.8092C20.8976 21.0295 19.9096 21.3688 18.9714 21.8202C17.0496 22.7482 15.2921 23.9835 13.768 25.4774C10.646 28.4508 8.20781 32.108 6.15618 35.9437V35.8842C6.36789 36.2791 6.66195 36.6238 7.01846 36.8952C7.37835 37.1739 7.76711 37.4131 8.17807 37.6088L10.5568 38.9765L15.2844 41.712L20.0121 44.4475L22.3908 45.8153C22.7773 46.0234 23.1639 46.291 23.5802 46.4694C23.9844 46.651 24.4169 46.7616 24.8587 46.7965C25.3024 46.8272 25.7477 46.7665 26.167 46.6181C26.5778 46.4499 26.9753 46.2511 27.3563 46.0234L29.735 44.6557L34.4627 41.9202L39.1904 39.1847L41.5691 37.8169C41.9556 37.5791 42.3719 37.3709 42.7584 37.133C42.9439 37.0036 43.1226 36.8647 43.2936 36.7168L43.5315 36.4789L43.6504 36.36L43.7099 36.3005C43.6207 36.2708 43.6504 36.2708 43.6504 36.2708Z" fill="url(#paint8_linear_2_51)"/>
<path d="M26.0778 20.5713C26.7882 20.6738 27.4928 20.8128 28.1889 20.9876C28.5643 21.0779 28.9321 21.1972 29.289 21.3444C29.289 21.3444 29.6756 21.7904 29.854 22.058C29.9969 22.288 30.126 22.5263 30.2405 22.7716L29.0512 23.0392C28.8047 22.4978 28.4507 22.0122 28.0105 21.612C27.4781 21.0888 26.8077 20.7278 26.0778 20.5713Z" fill="url(#paint9_linear_2_51)"/>
</g>
<defs>
<linearGradient id="paint0_linear_2_51" x1="74.6321" y1="13.9999" x2="74.6321" y2="36.8115" gradientUnits="userSpaceOnUse">
<stop stop-color="white"/>
<stop offset="1" stop-color="#C5C5C5"/>
</linearGradient>
<linearGradient id="paint1_linear_2_51" x1="98.3654" y1="14.1829" x2="98.3654" y2="36.9943" gradientUnits="userSpaceOnUse">
<stop stop-color="white"/>
<stop offset="1" stop-color="#C5C5C5"/>
</linearGradient>
<linearGradient id="paint2_linear_2_51" x1="122.031" y1="14.1829" x2="122.031" y2="36.9943" gradientUnits="userSpaceOnUse">
<stop stop-color="white"/>
<stop offset="1" stop-color="#C5C5C5"/>
</linearGradient>
<linearGradient id="paint3_linear_2_51" x1="144.516" y1="14.1914" x2="144.516" y2="36.9999" gradientUnits="userSpaceOnUse">
<stop stop-color="white"/>
<stop offset="1" stop-color="#C5C5C5"/>
</linearGradient>
<linearGradient id="paint4_linear_2_51" x1="171.398" y1="14.1829" x2="171.398" y2="36.9943" gradientUnits="userSpaceOnUse">
<stop stop-color="white"/>
<stop offset="1" stop-color="#C5C5C5"/>
</linearGradient>
<linearGradient id="paint5_linear_2_51" x1="197.812" y1="14.3558" x2="197.812" y2="36.9367" gradientUnits="userSpaceOnUse">
<stop stop-color="white"/>
<stop offset="1" stop-color="#C5C5C5"/>
</linearGradient>
<linearGradient id="paint6_linear_2_51" x1="5.2344" y1="25.1355" x2="44.7208" y2="25.1355" gradientUnits="userSpaceOnUse">
<stop stop-color="#E0BDFF"/>
<stop offset="1" stop-color="#8660C2"/>
</linearGradient>
<linearGradient id="paint7_linear_2_51" x1="19.1349" y1="25.0938" x2="30.7549" y2="25.0938" gradientUnits="userSpaceOnUse">
<stop stop-color="#E0BDFF"/>
<stop offset="0.23" stop-color="#C5A1ED"/>
<stop offset="0.56" stop-color="#A37ED5"/>
<stop offset="0.83" stop-color="#8E68C7"/>
<stop offset="1" stop-color="#8660C2"/>
</linearGradient>
<linearGradient id="paint8_linear_2_51" x1="5.24633" y1="32.9852" x2="44.5752" y2="32.9852" gradientUnits="userSpaceOnUse">
<stop stop-color="#E0BDFF"/>
<stop offset="0.03" stop-color="#DCB8FC"/>
<stop offset="0.32" stop-color="#B792E3"/>
<stop offset="0.59" stop-color="#9C77D1"/>
<stop offset="0.82" stop-color="#8C66C6"/>
<stop offset="1" stop-color="#8660C2"/>
</linearGradient>
<linearGradient id="paint9_linear_2_51" x1="28.1592" y1="20.5594" x2="28.1592" y2="23.0452" gradientUnits="userSpaceOnUse">
<stop stop-color="#7541ED" stop-opacity="0.98"/>
<stop offset="1" stop-color="#7540EE" stop-opacity="0"/>
</linearGradient>
<clipPath id="clip0_2_51">
<rect width="39.4864" height="44.3925" fill="white" transform="translate(5.23444 2.93921)"/>
</clipPath>
</defs>
</svg>
