<svg width="158" height="44" viewBox="0 0 158 44" fill="none" xmlns="http://www.w3.org/2000/svg">
<path d="M57.2823 21.257C58.893 20.9692 60.2098 20.5282 60.957 19.7994C61.3789 19.4715 61.7179 19.049 61.9467 18.566C62.1754 18.0831 62.2875 17.5531 62.2738 17.0189C62.2738 14.2384 59.9343 12.9216 55.1021 12.9216H50.1289V30.4805H55.543C56.9142 30.4838 58.2836 30.3855 59.6403 30.1866C60.6236 30.0285 61.5114 29.5059 62.1268 28.7228C62.7673 27.8789 63.1252 26.8544 63.1496 25.7953C63.1733 25.1814 63.0534 24.5705 62.7992 24.0112C62.5451 23.4519 62.1639 22.9597 61.6859 22.5738C60.3629 21.7474 58.8417 21.2925 57.2823 21.257ZM52.5971 13.6504H55.2307C56.1788 13.5886 57.1287 13.7393 58.0112 14.0914C58.5357 14.3184 58.9539 14.7367 59.1809 15.2612C59.5135 15.8894 59.6661 16.5973 59.6219 17.3067C59.6219 18.6235 59.3279 19.5055 58.5991 20.0873C57.8703 20.6691 56.6944 20.9692 54.7958 20.9692H52.7441V13.6504H52.5971ZM59.334 29.0168C58.6052 29.7456 57.5824 29.8926 56.2718 29.8926H52.5971V21.698H55.0837C56.9884 21.698 58.4521 21.992 59.1809 22.7208C59.587 23.1485 59.9004 23.6553 60.1017 24.2096C60.303 24.7639 60.3877 25.3537 60.3506 25.9423C60.3759 27.0536 60.0169 28.1396 59.334 29.0168Z" fill="url(#paint0_linear_97_17393)"/>
<path d="M68.6914 17.3065V23.8904V24.9131V26.089V30.6212H80.2544V30.0332H73.5236H71.3249V26.089V24.9131V24.1843V23.8904V21.6978H73.0827H77.6209V21.1098H73.0827H71.3249V17.8945V17.4535V13.6502H73.6706H80.3953V13.0623H68.6914V17.3065Z" fill="url(#paint1_linear_97_17393)"/>
<path d="M88.8855 13.0623H86.252V17.4535V26.089V30.6212H98.5438V30.0332H88.8855V13.0623Z" fill="url(#paint2_linear_97_17393)"/>
<path d="M115.366 15.4082C113.731 13.9039 111.59 13.0691 109.367 13.0691C107.145 13.0691 105.004 13.9039 103.368 15.4082C102.497 16.2012 101.81 17.1751 101.355 18.2616C100.9 19.3481 100.689 20.521 100.735 21.698C100.688 22.8968 100.899 24.0917 101.353 25.2021C101.808 26.3125 102.495 27.3126 103.368 28.1348C105.126 29.7456 106.737 30.6214 109.37 30.6214C110.508 30.6587 111.642 30.4567 112.697 30.0284C113.752 29.6 114.705 28.9549 115.495 28.1348C117.253 26.5302 117.988 24.3315 117.988 21.698C117.988 19.0645 117.124 16.8719 115.366 15.4082ZM113.762 27.994C113.265 28.6454 112.622 29.1706 111.885 29.5271C111.147 29.8836 110.336 30.0612 109.517 30.0457C107.319 30.0457 106.296 29.3107 105.126 27.994C104.103 26.6772 103.515 24.6316 103.515 21.8695C103.515 19.236 104.128 17.1904 105.126 15.745C106.296 14.4282 107.178 13.6933 109.223 13.6933C110.087 13.6599 110.947 13.8279 111.734 14.184C112.522 14.5401 113.216 15.0745 113.762 15.745C114.931 17.2088 115.078 19.1073 115.078 21.7409C115.066 24.4785 114.931 26.5302 113.762 27.994Z" fill="url(#paint3_linear_97_17393)"/>
<path d="M135.56 16.1367V26.3769L125.614 13.0623H122.98V17.1595V26.3769V30.1802H123.562V26.3769V14.379L135.854 30.6212H136.295V16.2837V13.0623H135.56V16.1367Z" fill="url(#paint4_linear_97_17393)"/>
<path d="M157.215 23.1616H152.535V23.8966H154.728V26.2361C154.757 26.8966 154.606 27.5525 154.293 28.1347C153.997 28.7483 153.471 29.2211 152.829 29.4515C152.096 29.8099 151.299 30.0181 150.484 30.0639C149.679 30.0917 148.878 29.9344 148.143 29.6042C147.409 29.274 146.759 28.7796 146.246 28.1592C145.07 26.8424 144.488 24.7969 144.488 21.7224C144.488 18.6479 145.07 16.6023 146.246 15.4325C146.797 14.8695 147.457 14.4237 148.185 14.1217C148.914 13.8197 149.695 13.6677 150.484 13.6748C151.96 13.6758 153.378 14.2538 154.434 15.2855C154.762 15.5954 155.058 15.9381 155.316 16.3083L155.928 15.6959C155.234 14.9068 154.378 14.276 153.419 13.846C152.459 13.416 151.419 13.1968 150.367 13.2032C149.176 13.1502 147.988 13.3737 146.896 13.856C145.805 14.3384 144.841 15.0666 144.078 15.9837C142.575 17.6604 141.788 19.8587 141.885 22.1082C141.855 24.3734 142.692 26.5643 144.225 28.2327C145.014 29.0097 145.953 29.6178 146.985 30.02C148.017 30.4222 149.12 30.6101 150.226 30.5723C151.587 30.5336 152.928 30.2364 154.177 29.6965C154.804 29.3763 155.392 28.9836 155.928 28.5267C156.352 28.2001 156.692 27.7778 156.921 27.2945C157.15 26.8113 157.261 26.2807 157.245 25.7462V23.1126L157.215 23.1616Z" fill="url(#paint5_linear_97_17393)"/>
<path d="M0.148469 30.9155V12.8793C0.14582 12.2503 0.311015 11.6319 0.62702 11.0879C0.943025 10.544 1.3984 10.0942 1.94619 9.78491L17.5658 0.766822C18.1113 0.448342 18.7317 0.280518 19.3635 0.280518C19.9952 0.280518 20.6156 0.448342 21.1612 0.766822L36.7808 9.78491C37.3257 10.0975 37.7788 10.548 38.0943 11.0912C38.4099 11.6344 38.5769 12.2511 38.5785 12.8793V30.945C38.5811 31.5741 38.4159 32.1924 38.0999 32.7364C37.7839 33.2803 37.3285 33.7301 36.7808 34.0394L21.1612 43.0575C20.6156 43.376 19.9952 43.5438 19.3635 43.5438C18.7317 43.5438 18.1113 43.376 17.5658 43.0575L1.94619 34.0394C1.39771 33.7235 0.94254 33.2681 0.626824 32.7195C0.311109 32.1708 0.146079 31.5485 0.148469 30.9155Z" fill="#151515"/>
<path d="M38.9907 12.8495V30.9447C38.9966 31.697 38.7588 32.4311 38.3128 33.0371C38.0129 33.445 37.6316 33.7862 37.1929 34.0391L27.9096 39.4028L25.8172 40.6111L21.5439 43.0867C21.0036 43.4049 20.388 43.5728 19.7609 43.5728C19.1339 43.5728 18.5182 43.4049 17.9779 43.0867L13.2036 40.3164L11.4354 39.2849L2.3289 34.0391C1.76881 33.7201 1.30937 33.2504 1.00271 32.6834C0.708344 32.1515 0.556091 31.5526 0.560646 30.9447V12.8495C0.557261 12.2828 0.69932 11.7248 0.973238 11.2286C1.28883 10.6181 1.76853 10.1078 2.35837 9.7551L11.2586 4.5977L13.2921 3.41887L18.0074 0.707547C18.5477 0.389281 19.1633 0.221436 19.7904 0.221436C20.4174 0.221436 21.0331 0.389281 21.5734 0.707547L25.7877 3.12416L28.1454 4.47982L37.2519 9.72563C37.7156 9.99338 38.1095 10.367 38.4012 10.8161C38.7863 11.4244 38.9907 12.1296 38.9907 12.8495Z" stroke="black" stroke-width="0.110015" stroke-miterlimit="10"/>
<path d="M19.5686 27.4084C22.5146 27.4084 24.9028 25.0202 24.9028 22.0742C24.9028 19.1282 22.5146 16.74 19.5686 16.74C16.6226 16.74 14.2344 19.1282 14.2344 22.0742C14.2344 25.0202 16.6226 27.4084 19.5686 27.4084Z" stroke="black" stroke-width="0.110015" stroke-miterlimit="10"/>
<path d="M25.8467 40.6111L21.5439 43.0867C21.0036 43.4049 20.388 43.5728 19.7609 43.5728C19.1339 43.5728 18.5182 43.4049 17.9779 43.0867L13.2037 40.3164L11.4354 39.2849L2.3289 34.0391C1.76881 33.7201 1.30937 33.2504 1.00271 32.6834C0.708344 32.1515 0.556091 31.5526 0.560646 30.9447V12.8495C0.557261 12.2828 0.69932 11.7248 0.973238 11.2286C1.28883 10.6181 1.76853 10.1078 2.35837 9.7551L11.2586 4.5977L13.2921 3.41887L18.0074 0.707547C18.5477 0.389281 19.1633 0.221436 19.7904 0.221436C20.4175 0.221436 21.0331 0.389281 21.5734 0.707547L25.7877 3.12416L28.1454 4.47982L37.2519 9.72563C37.7156 9.99338 38.1095 10.367 38.4012 10.8161C38.8115 11.4032 39.0279 12.1039 39.0201 12.8201V30.9152C39.0261 31.6676 38.7883 32.4017 38.3423 33.0076C38.0424 33.4155 37.661 33.7567 37.2224 34.0096L27.9391 39.3733L25.8467 40.6111Z" stroke="black" stroke-width="0.110015" stroke-miterlimit="10"/>
<path d="M19.5696 27.4084C18.8586 27.4094 18.1488 27.3502 17.4477 27.2316C16.6349 27.0984 15.8358 26.8912 15.0606 26.6127C14.0226 26.2443 13.0252 25.7703 12.084 25.1981C10.6738 24.318 9.36866 23.2798 8.19389 22.1037C6.16262 20.0416 4.40904 17.7233 2.97755 15.2075C2.24077 13.9992 1.56294 12.673 0.885114 11.2879L0.826172 11.2289L0.855643 11.17C1.17309 10.5436 1.66419 10.0218 2.27024 9.66698L17.9193 0.619419C18.4808 0.30064 19.1155 0.133057 19.7612 0.133057C20.4069 0.133057 21.0416 0.30064 21.6031 0.619419L37.2522 9.66698C37.7221 9.96053 38.1321 10.3405 38.4605 10.7869L38.4899 10.8458L38.4605 10.9048C37.7818 12.3787 37.0243 13.815 36.1912 15.2075C34.7499 17.7245 32.9864 20.0428 30.9454 22.1037C29.7723 23.2816 28.4669 24.32 27.0552 25.1981C26.1205 25.782 25.1218 26.2567 24.0787 26.6127C23.3066 26.9013 22.5066 27.1087 21.6915 27.2316C20.9903 27.349 20.2806 27.4081 19.5696 27.4084ZM1.06194 11.2289C1.6833 12.5502 2.37185 13.8387 3.1249 15.0896C4.56379 17.5749 6.30611 19.8716 8.31177 21.9269C9.46901 23.102 10.7655 24.1313 12.1725 24.9918C13.1034 25.5637 14.091 26.0377 15.1195 26.4064C15.8889 26.6712 16.677 26.8781 17.4772 27.0253C18.8622 27.2611 20.2771 27.2611 21.6621 27.0253C22.4683 26.906 23.2589 26.6984 24.0197 26.4064C25.0387 26.0374 26.0165 25.5633 26.9374 24.9918C28.3443 24.1313 29.6408 23.102 30.798 21.9269C32.8359 19.8923 34.5905 17.5926 36.0144 15.0896C36.7806 13.7929 37.5469 12.3488 38.2542 10.8458C37.9655 10.4386 37.5939 10.0971 37.1638 9.8438L21.5147 0.825716C20.9857 0.521645 20.3861 0.361627 19.7759 0.361627C19.1657 0.361627 18.5662 0.521645 18.0372 0.825716L2.35866 9.87327C1.80697 10.1935 1.35735 10.6636 1.06194 11.2289Z" fill="#CB99FF"/>
<path d="M11.4049 39.403L11.346 39.3735L2.23948 34.1277C1.6531 33.7969 1.17276 33.3063 0.854347 32.7131C0.547324 32.1635 0.385064 31.5449 0.382812 30.9153V12.8497C0.387281 12.2067 0.55786 11.5758 0.878002 11.0181C1.19815 10.4604 1.65698 9.99495 2.21001 9.66685L11.2281 4.47998L11.287 4.50945C11.8175 4.80416 12.3185 5.0694 12.7606 5.36411C15.2687 6.80547 17.5772 8.56907 19.6273 10.6099C20.8071 11.7814 21.8456 13.087 22.7217 14.5001C23.2992 15.428 23.7735 16.4162 24.1363 17.4472C24.3937 18.1987 24.6004 18.9667 24.7552 19.7459V19.8343C24.8738 20.5354 24.933 21.2452 24.932 21.9562C24.9269 22.5778 24.8777 23.1982 24.7847 23.8129C24.7847 23.9013 24.7552 23.9897 24.7552 24.1076C24.6287 24.9219 24.4214 25.7215 24.1363 26.4947C23.7575 27.5334 23.2736 28.5308 22.6923 29.4713C21.8216 30.8882 20.7826 32.1944 19.5978 33.3614C17.5477 35.4023 15.2392 37.1659 12.7311 38.6073C12.348 38.843 11.9354 39.0788 11.4344 39.344L11.4049 39.403ZM11.2281 4.74522L2.35736 9.87315C1.78739 10.206 1.3266 10.6975 1.03117 11.2878C0.770174 11.777 0.638309 12.3247 0.64805 12.8792V30.9743C0.644064 31.5635 0.796617 32.1432 1.09011 32.6541C1.39503 33.2049 1.84305 33.6631 2.38683 33.9803L11.4344 39.1967C11.9059 38.9314 12.3185 38.6957 12.6722 38.4894C15.1651 37.0504 17.463 35.2972 19.5094 33.273C20.6845 32.1158 21.7138 30.8193 22.5744 29.4123C23.1459 28.4915 23.6199 27.5137 23.989 26.4947C24.2739 25.7316 24.4812 24.9417 24.6079 24.1371C24.6322 24.0509 24.6421 23.9612 24.6373 23.8718C24.7292 23.2669 24.7784 22.6564 24.7847 22.0446C24.7856 21.3434 24.7265 20.6433 24.6079 19.9522V19.8932C24.4774 19.1116 24.2802 18.3425 24.0184 17.5945C23.6554 16.573 23.181 15.5946 22.6038 14.6769C21.7043 13.2634 20.6571 11.9495 19.4799 10.7573C17.4258 8.74189 15.1291 6.98967 12.6427 5.54093C12.2006 5.30516 11.7291 5.01046 11.2281 4.74522Z" fill="#CB99FF"/>
<path d="M27.9092 39.5203L27.8503 39.4909C27.3787 39.2256 26.8483 38.9309 26.3472 38.6362C23.8471 37.1829 21.5401 35.4204 19.4805 33.3904C18.3026 32.2172 17.2642 30.9119 16.3861 29.5002C15.8022 28.5655 15.3275 27.5667 14.9715 26.5237C14.6828 25.7415 14.4754 24.9317 14.3526 24.1071C14.2352 23.4058 14.1761 22.6961 14.1758 21.9852C14.185 20.4384 14.454 18.9043 14.9715 17.4466C15.3457 16.4111 15.8195 15.4142 16.3861 14.4701C17.2567 13.0532 18.2958 11.7469 19.4805 10.5799C21.5442 8.55471 23.8507 6.79271 26.3472 5.33411C26.9072 5.00993 27.4671 4.68575 28.0566 4.39104L28.1155 4.36157L37.2809 9.66633C37.7509 9.95988 38.1609 10.3399 38.4892 10.7862C38.9052 11.3943 39.1309 12.1124 39.1376 12.8492V30.9443C39.1336 31.5909 38.9601 32.2251 38.6343 32.7836C38.3084 33.3421 37.8418 33.8054 37.2809 34.1272L27.9092 39.5203ZM28.1155 4.62681C27.5556 4.92152 26.9956 5.2457 26.4651 5.54041C23.9787 6.98914 21.682 8.74136 19.6279 10.7568C18.4528 11.914 17.4235 13.2105 16.5629 14.6174C15.997 15.5413 15.5232 16.5186 15.1483 17.5351C14.8632 18.3082 14.6559 19.1079 14.5294 19.9222C14.2937 21.3072 14.2937 22.7221 14.5294 24.1071C14.6488 24.9132 14.8563 25.7039 15.1483 26.4647C15.5174 27.4837 15.9914 28.4615 16.5629 29.3823C17.4385 30.7788 18.4664 32.0736 19.6279 33.243C21.6778 35.2632 23.9752 37.0159 26.4651 38.4594C26.9661 38.7541 27.4377 39.0193 27.9092 39.2846L37.1336 33.9503C37.5529 33.706 37.9147 33.3743 38.1945 32.9778C38.6269 32.3889 38.8546 31.6747 38.8429 30.9443V12.8492C38.8514 12.1511 38.6344 11.4689 38.224 10.9041C37.9262 10.4784 37.5452 10.1175 37.1041 9.84315L28.1155 4.62681Z" fill="#CB99FF"/>
<path d="M11.493 30.1198C8.62711 30.0895 5.77609 29.7034 3.00537 28.9704C2.2686 28.7936 1.47289 28.5578 0.529819 28.2631L0.441406 28.2336V12.8498C0.445875 12.2068 0.616454 11.5759 0.936596 11.0182C1.25674 10.4605 1.71558 9.99508 2.2686 9.66698L17.9176 0.619419C18.4792 0.30064 19.1138 0.133057 19.7596 0.133057C20.4053 0.133057 21.0399 0.30064 21.6015 0.619419L25.8453 3.0655V3.09497C26.0811 3.86121 26.3168 4.62746 26.4937 5.3937C27.2539 8.17902 27.6404 11.0531 27.643 13.9403C27.6449 15.6065 27.457 17.2676 27.0831 18.8914C26.8274 19.9539 26.4722 20.99 26.0221 21.9858V22.0153C25.657 22.7646 25.2333 23.484 24.7549 24.1666C24.6959 24.2551 24.6075 24.3435 24.5486 24.4319V24.4908H24.4896C24.142 24.9446 23.7681 25.3776 23.3697 25.7875C23.134 26.0233 22.8687 26.2591 22.633 26.4654C22.3488 26.7263 22.0432 26.9629 21.7194 27.1727C21.0469 27.6508 20.3373 28.0746 19.5975 28.4399H19.568C18.5893 28.9074 17.5612 29.2632 16.503 29.5009C14.8818 29.8893 13.219 30.0774 11.5519 30.0608C11.5225 30.1198 11.5225 30.1198 11.493 30.1198ZM0.647702 28.0568C1.5613 28.3515 2.32754 28.5578 3.03484 28.7346C5.79517 29.4694 8.63667 29.8555 11.493 29.884H11.5519C13.2085 29.8859 14.8598 29.698 16.4736 29.324C17.5279 29.073 18.5546 28.7176 19.5385 28.2631H19.568C20.2919 27.9142 20.9824 27.4999 21.631 27.0253C21.9507 26.8226 22.2471 26.5854 22.5151 26.318C22.7509 26.1117 22.9866 25.9054 23.2519 25.6402C23.6497 25.2401 24.0236 24.8169 24.3717 24.3729V24.3435L24.4012 24.2845L24.578 24.0193C25.0528 23.3605 25.4671 22.6602 25.8158 21.9269V21.8974C26.2704 20.9135 26.6258 19.8868 26.8768 18.8324C27.2508 17.2286 27.4387 15.5871 27.4367 13.9403C27.4064 11.0744 27.0204 8.22336 26.2874 5.45264C26.0811 4.71587 25.8748 3.94963 25.639 3.18339L21.4836 0.766774C20.9546 0.462703 20.355 0.302685 19.7448 0.302685C19.1346 0.302685 18.5351 0.462703 18.006 0.766774L2.35701 9.87327C1.78705 10.2061 1.32625 10.6976 1.03082 11.2879C0.769826 11.7771 0.637961 12.3249 0.647702 12.8793V28.0568Z" fill="#CB99FF"/>
<path d="M19.7758 43.6756C19.1244 43.6691 18.4854 43.4967 17.9192 43.1746L13.0859 40.4043V40.3748C12.9091 39.7265 12.7323 39.1371 12.5849 38.6066C11.8373 35.8187 11.451 32.9464 11.4356 30.06C11.4337 28.3938 11.6215 26.7327 11.9955 25.1089C12.2477 24.0416 12.6132 23.0042 13.0859 22.0145V21.985C13.4334 21.2356 13.8581 20.5244 14.3532 19.8631C14.7738 19.2798 15.2368 18.7282 15.7383 18.2128C16.2474 17.7042 16.7995 17.2408 17.3887 16.8276C18.0612 16.3495 18.7707 15.9257 19.5106 15.5604H19.5401C20.5187 15.0929 21.5468 14.7371 22.605 14.4994C24.2263 14.111 25.8891 13.9229 27.5561 13.9395H27.674C30.53 13.9718 33.3711 14.3578 36.1322 15.0888C37.0457 15.3246 38.0183 15.6193 39.0203 15.9435L39.1087 15.973V31.0031C39.1047 31.6497 38.9312 32.2839 38.6054 32.8424C38.2796 33.401 37.8129 33.8642 37.252 34.186L21.603 43.2335C21.033 43.5111 20.4097 43.662 19.7758 43.6756ZM13.2922 40.257L18.037 42.9978C18.5661 43.3018 19.1656 43.4618 19.7758 43.4618C20.386 43.4618 20.9856 43.3018 21.5146 42.9978L37.1636 33.9502C37.5829 33.7059 37.9448 33.3742 38.2246 32.9777C38.657 32.3888 38.8847 31.6746 38.8729 30.9442V16.0614C37.9004 15.7372 36.9573 15.472 36.0732 15.2362C33.3325 14.5036 30.5108 14.1175 27.674 14.0868H27.5561C25.9093 14.0848 24.2677 14.2727 22.664 14.6468C21.6096 14.8978 20.5829 15.2532 19.599 15.7077H19.5695C18.8456 16.0566 18.1551 16.4709 17.5066 16.9455C16.9331 17.3562 16.3913 17.8094 15.8857 18.3012C15.3855 18.7992 14.9318 19.3417 14.53 19.9221C14.0618 20.5748 13.6478 21.2647 13.2922 21.985V22.0145C12.8377 22.9984 12.4823 24.0251 12.2313 25.0795C11.8572 26.6832 11.6693 28.3248 11.6713 29.9716C11.7034 32.8471 12.0894 35.7076 12.8207 38.4887C12.9386 39.0487 13.1154 39.6086 13.2922 40.257Z" fill="#CB99FF"/>
<path d="M19.7745 43.6759C19.1231 43.6695 18.484 43.4971 17.9178 43.1749L2.26877 34.1274C1.6824 33.7965 1.20205 33.306 0.883643 32.7128C0.576621 32.1632 0.414361 31.5446 0.412109 30.915V15.767L0.500522 15.7375C1.44359 15.4428 2.2393 15.2071 2.97607 15.0302C5.76429 14.2844 8.63643 13.8982 11.5226 13.8809C13.1889 13.879 14.85 14.0668 16.4737 14.4408C17.5411 14.693 18.5785 15.0586 19.5682 15.5312H19.5976C20.3471 15.8787 21.0582 16.3034 21.7195 16.7985C21.7755 16.8284 21.8254 16.8684 21.8669 16.9164C22.3964 17.3038 22.8986 17.7272 23.3699 18.1836C23.8785 18.6927 24.3419 19.2449 24.755 19.834C24.7711 19.8499 24.7814 19.8706 24.7845 19.8929C25.2507 20.5573 25.6645 21.2569 26.0223 21.9854V22.0148C26.4724 23.0107 26.8276 24.0467 27.0832 25.1093C27.47 26.7308 27.658 28.3934 27.6432 30.0604C27.6113 32.9455 27.2253 35.8159 26.4938 38.6069C26.317 39.2553 26.1402 39.9626 25.9044 40.6699V40.6994L21.5722 43.2044C21.0212 43.5079 20.4035 43.6699 19.7745 43.6759ZM0.647876 15.9438V30.9445C0.64389 31.5337 0.796443 32.1134 1.08994 32.6243C1.39486 33.1751 1.84287 33.6333 2.38666 33.9505L18.0357 42.9981C18.5647 43.3022 19.1643 43.4622 19.7745 43.4622C20.3847 43.4622 20.9842 43.3022 21.5133 42.9981L25.7571 40.552C25.9634 39.8742 26.1697 39.1964 26.317 38.548C27.0627 35.7698 27.449 32.9074 27.4664 30.0309C27.4684 28.3841 27.2805 26.7425 26.9064 25.1387C26.6554 24.0844 26.3 23.0577 25.8455 22.0738V22.0443C25.502 21.3329 25.0978 20.6526 24.6372 20.0108L24.6077 19.9813C24.1984 19.4068 23.7452 18.8648 23.252 18.3604C22.7895 17.9058 22.2973 17.4824 21.7785 17.0932C21.7195 17.0637 21.6901 17.0048 21.6311 17.0048C20.9724 16.53 20.272 16.1157 19.5387 15.767H19.5092C18.5253 15.3125 17.4986 14.9571 16.4443 14.7061C14.8405 14.332 13.1989 14.1441 11.5521 14.1461H11.4932C8.63698 14.1765 5.79572 14.5626 3.03502 15.2955C2.22737 15.465 1.4303 15.6815 0.647876 15.9438Z" fill="#CB99FF"/>
<path d="M27.7036 30.1198H27.5857C25.9193 30.1233 24.2581 29.9355 22.6346 29.5598C21.5789 29.3135 20.5517 28.9579 19.5696 28.4989H19.5401C18.7907 28.1514 18.0796 27.7267 17.4182 27.2316C16.8349 26.811 16.2833 26.348 15.7679 25.8465C15.2593 25.3374 14.7959 24.7852 14.3827 24.1961C13.9046 23.5236 13.4808 22.8141 13.1155 22.0742V22.0447C12.6466 21.0535 12.2811 20.0165 12.0251 18.9503C11.6282 17.33 11.4303 15.6674 11.4357 13.9992C11.4638 11.1138 11.8499 8.24299 12.585 5.45264C12.7618 4.77481 12.9387 4.09698 13.145 3.41915V3.38968L17.9192 0.619419C18.4808 0.30064 19.1155 0.133057 19.7612 0.133057C20.4069 0.133057 21.0416 0.30064 21.6031 0.619419L37.2521 9.66698C37.7221 9.96053 38.1321 10.3405 38.4604 10.7869C38.8764 11.395 39.1021 12.1131 39.1088 12.8498V28.0863L39.0204 28.1157C38.0184 28.4399 37.0458 28.7346 36.1322 28.9704C33.3812 29.7013 30.5499 30.0873 27.7036 30.1198ZM19.5991 28.2631C20.5839 28.7229 21.6102 29.088 22.6641 29.3535C24.275 29.7437 25.9283 29.9318 27.5857 29.9135C30.4611 29.8814 33.3217 29.4954 36.1028 28.7641C37.0164 28.5283 37.9594 28.2631 38.9025 27.9389V12.8498C38.911 12.1517 38.694 11.4696 38.2836 10.9048C37.9858 10.4791 37.6048 10.1182 37.1637 9.8438L21.5147 0.825716C20.9856 0.521645 20.3861 0.361627 19.7759 0.361627C19.1657 0.361627 18.5662 0.521645 18.0371 0.825716L13.3807 3.50757C13.1744 4.15592 12.9976 4.80428 12.8208 5.48211C12.0857 8.26245 11.6997 11.1235 11.6714 13.9992C11.6694 15.646 11.8573 17.2876 12.2314 18.8914C12.4824 19.9457 12.8378 20.9724 13.2923 21.9563V21.9858C13.6412 22.7097 14.0555 23.4002 14.5301 24.0488C14.9408 24.6222 15.394 25.164 15.8858 25.6697C16.3838 26.1698 16.9263 26.6236 17.5067 27.0253C18.1654 27.5001 18.8657 27.9144 19.5991 28.2631Z" fill="#CB99FF"/>
<path d="M19.5687 44C18.8755 43.9985 18.1947 43.8156 17.5941 43.4695L1.97455 34.4514C1.37601 34.1031 0.878918 33.6044 0.532561 33.0047C0.186203 32.4051 0.00261449 31.7253 0 31.0328V12.9672C0.00261449 12.2747 0.186203 11.5949 0.532561 10.9952C0.878918 10.3955 1.37601 9.89684 1.97455 9.54853L17.5941 0.53045C18.1942 0.182977 18.8753 0 19.5687 0C20.262 0 20.9432 0.182977 21.5432 0.53045L37.1628 9.54853C37.7613 9.89684 38.2584 10.3955 38.6048 10.9952C38.9511 11.5949 39.1347 12.2747 39.1373 12.9672V31.0328C39.1347 31.7253 38.9511 32.4051 38.6048 33.0047C38.2584 33.6044 37.7613 34.1031 37.1628 34.4514L21.5432 43.4695C20.9441 43.8192 20.2624 44.0024 19.5687 44ZM19.5687 0.736746C18.9986 0.736842 18.4389 0.889475 17.9478 1.17881L2.3282 10.1969C1.83491 10.4789 1.42508 10.8865 1.14038 11.3783C0.855683 11.87 0.70626 12.4284 0.707301 12.9966V31.0623C0.708658 31.63 0.859093 32.1874 1.14355 32.6788C1.42801 33.1701 1.83652 33.5781 2.3282 33.862L17.9478 42.8801C18.4383 43.1556 18.9914 43.3002 19.5539 43.3002C20.1165 43.3002 20.6696 43.1556 21.1601 42.8801L36.7796 33.862C37.2729 33.58 37.6828 33.1724 37.9675 32.6806C38.2522 32.1889 38.4016 31.6305 38.4005 31.0623V12.9672C38.3992 12.3994 38.2487 11.842 37.9643 11.3506C37.6798 10.8593 37.2713 10.4513 36.7796 10.1674L21.1601 1.14934C20.6732 0.879062 20.1255 0.737079 19.5687 0.736746Z" fill="url(#paint6_linear_97_17393)"/>
<path d="M25.2866 21.956C25.2518 23.4735 24.6158 24.9152 23.5184 25.964C22.9877 26.4759 22.3592 26.8754 21.6706 27.1387C20.9819 27.4021 20.2472 27.5237 19.5104 27.4965C18.7889 27.4765 18.0782 27.3164 17.4179 27.025C16.7707 26.7295 16.1818 26.3202 15.6791 25.8167C15.1832 25.3088 14.7926 24.7078 14.5298 24.0484C14.2603 23.3938 14.1202 22.6933 14.1172 21.9854C14.1221 20.5456 14.6815 19.163 15.6791 18.1248C16.6999 17.082 18.0816 16.4703 19.5398 16.4154C20.2782 16.3963 21.013 16.5245 21.7012 16.7927C22.3894 17.0609 23.0172 17.4637 23.5479 17.9774C24.099 18.4827 24.5384 19.0977 24.8378 19.7829C25.1373 20.468 25.2901 21.2082 25.2866 21.956ZM24.0489 21.956C24.044 21.3618 23.9342 20.7732 23.7247 20.2172C23.5141 19.6581 23.1934 19.147 22.7816 18.7142C22.3637 18.2709 21.862 17.9151 21.3055 17.6672C20.749 17.4193 20.1489 17.2843 19.5398 17.2701C18.2847 17.2464 17.0694 17.7113 16.1507 18.5668C15.4683 19.2263 15.0008 20.0764 14.8094 21.0059C14.6179 21.9354 14.7113 22.901 15.0775 23.7765C15.4436 24.652 16.0654 25.3967 16.8615 25.9132C17.6576 26.4296 18.5911 26.6939 19.5398 26.6713C20.1512 26.6548 20.7531 26.5158 21.3099 26.2627C21.8667 26.0097 22.3671 25.6475 22.7816 25.1978C23.197 24.7682 23.5229 24.2605 23.7404 23.704C23.958 23.1475 24.0628 22.5533 24.0489 21.956Z" fill="url(#paint7_linear_97_17393)"/>
<path d="M38.2233 33.037C38.1938 33.0665 38.1938 33.096 38.1643 33.1549L38.1054 33.2138L37.9875 33.3317C37.9165 33.4176 37.8376 33.4965 37.7517 33.5675C37.5822 33.7141 37.4051 33.8518 37.2213 33.9801C36.8381 34.2159 36.4256 34.4221 36.0424 34.6579L33.6848 36.0136L28.9989 38.7249L24.313 41.4362L21.9554 42.7919C21.5714 43.0331 21.1671 43.2402 20.747 43.4108C20.3107 43.5561 19.8504 43.6161 19.3914 43.5876C18.9299 43.5608 18.4787 43.4405 18.0652 43.2339C17.6526 43.0276 17.2695 42.7919 16.8864 42.5561L14.5287 41.2005L9.84283 38.4891L5.15696 35.7778L2.79929 34.4222C2.39273 34.2152 2.00772 33.9684 1.64992 33.6854C1.29384 33.3877 0.994343 33.0283 0.765799 32.6244L0.736328 32.595L0.765799 32.5655C1.60997 30.5579 2.605 28.617 3.74236 26.7597C4.89009 24.8841 6.23363 23.1355 7.75039 21.5434C9.28628 19.9248 11.0786 18.5706 13.0552 17.5353C14.067 17.0209 15.1351 16.6253 16.238 16.3565L17.0632 16.1797C17.3456 16.124 17.6309 16.0846 17.9178 16.0618C18.2 16.0129 18.4863 15.9931 18.7725 16.0029C19.0567 15.9783 19.342 15.9685 19.6272 15.9734C20.7703 15.988 21.9077 16.1363 23.0163 16.4155C24.1191 16.7111 25.1863 17.1262 26.1992 17.6532C28.1933 18.6992 29.9967 20.0742 31.5334 21.7202C32.2974 22.5241 33.0157 23.3702 33.6848 24.2547C34.3331 25.1388 34.952 26.0819 35.512 26.9955C36.0719 27.9091 36.5729 28.9111 37.0444 29.9131C37.2802 30.4141 37.4865 30.9151 37.6928 31.4161C37.8038 31.6664 37.9022 31.9222 37.9875 32.1824L38.1349 32.5655L38.2233 32.7718V33.037ZM38.0759 33.037L37.958 32.8897C37.9286 32.8307 37.8991 32.8013 37.8696 32.7423L37.6633 32.3887L37.2507 31.6814L36.3961 30.2962C35.8067 29.3826 35.2172 28.4985 34.5984 27.6144C33.9795 26.7303 33.3311 25.9051 32.6533 25.0799C31.9827 24.2621 31.2643 23.4847 30.5019 22.7517C29.0376 21.2546 27.3591 19.9833 25.5213 18.9794C25.064 18.7336 24.5915 18.517 24.1067 18.3311C23.6352 18.1542 23.1342 17.9774 22.6332 17.8301C21.6423 17.5636 20.6234 17.4152 19.5977 17.388C19.3419 17.3831 19.0861 17.3929 18.8314 17.4175C18.5751 17.4213 18.3192 17.441 18.0652 17.4764L17.299 17.5648C17.041 17.5997 16.7852 17.6489 16.5327 17.7122C15.5242 17.9305 14.5449 18.2668 13.6151 18.7142C11.7103 19.634 9.96829 20.8584 8.4577 22.3391C5.36326 25.2862 2.94664 28.9111 0.913153 32.7128V32.6539C1.12299 33.0453 1.41445 33.387 1.76781 33.6559C2.12452 33.9321 2.50984 34.1692 2.91717 34.3632L5.27484 35.7189L9.96071 38.4302L14.6466 41.1415L17.0042 42.4972C17.3874 42.7035 17.7705 42.9687 18.1831 43.1455C18.5838 43.3254 19.0125 43.4351 19.4503 43.4697C19.8901 43.5001 20.3315 43.4399 20.747 43.2929C21.1542 43.1262 21.5482 42.9291 21.9259 42.7035L24.2836 41.3478L28.9694 38.6365L33.6553 35.9252L36.013 34.5695C36.3961 34.3337 36.8087 34.1274 37.1918 33.8917C37.3756 33.7634 37.5527 33.6257 37.7223 33.4791L37.958 33.2433L38.0759 33.1254L38.1349 33.0665C38.0465 33.037 38.0759 33.037 38.0759 33.037Z" fill="url(#paint8_linear_97_17393)"/>
<path d="M20.6582 17.4766C21.3623 17.5782 22.0607 17.7159 22.7506 17.8892C23.1227 17.9787 23.4873 18.0969 23.8411 18.2428C23.8411 18.2428 24.2242 18.6849 24.401 18.9501C24.5426 19.1781 24.6706 19.4142 24.7841 19.6574L23.6053 19.9226C23.361 19.386 23.0101 18.9047 22.5738 18.508C22.0461 17.9894 21.3817 17.6317 20.6582 17.4766Z" fill="url(#paint9_linear_97_17393)"/>
<defs>
<linearGradient id="paint0_linear_97_17393" x1="56.6407" y1="30.4806" x2="56.6407" y2="12.9216" gradientUnits="userSpaceOnUse">
<stop stop-color="#151515"/>
<stop offset="1" stop-color="#747474"/>
</linearGradient>
<linearGradient id="paint1_linear_97_17393" x1="74.5434" y1="30.6212" x2="74.5434" y2="13.0623" gradientUnits="userSpaceOnUse">
<stop stop-color="#151515"/>
<stop offset="1" stop-color="#747474"/>
</linearGradient>
<linearGradient id="paint2_linear_97_17393" x1="92.3979" y1="30.6212" x2="92.3979" y2="13.0623" gradientUnits="userSpaceOnUse">
<stop stop-color="#151515"/>
<stop offset="1" stop-color="#747474"/>
</linearGradient>
<linearGradient id="paint3_linear_97_17393" x1="109.358" y1="30.6257" x2="109.358" y2="13.0691" gradientUnits="userSpaceOnUse">
<stop stop-color="#151515"/>
<stop offset="1" stop-color="#747474"/>
</linearGradient>
<linearGradient id="paint4_linear_97_17393" x1="129.638" y1="30.6212" x2="129.638" y2="13.0623" gradientUnits="userSpaceOnUse">
<stop stop-color="#151515"/>
<stop offset="1" stop-color="#747474"/>
</linearGradient>
<linearGradient id="paint5_linear_97_17393" x1="149.562" y1="30.577" x2="149.562" y2="13.1956" gradientUnits="userSpaceOnUse">
<stop stop-color="#151515"/>
<stop offset="1" stop-color="#747474"/>
</linearGradient>
<linearGradient id="paint6_linear_97_17393" x1="0" y1="22" x2="39.1373" y2="22" gradientUnits="userSpaceOnUse">
<stop stop-color="#E0BDFF"/>
<stop offset="1" stop-color="#8660C2"/>
</linearGradient>
<linearGradient id="paint7_linear_97_17393" x1="13.7783" y1="21.9589" x2="25.2955" y2="21.9589" gradientUnits="userSpaceOnUse">
<stop stop-color="#E0BDFF"/>
<stop offset="0.23" stop-color="#C5A1ED"/>
<stop offset="0.56" stop-color="#A37ED5"/>
<stop offset="0.83" stop-color="#8E68C7"/>
<stop offset="1" stop-color="#8660C2"/>
</linearGradient>
<linearGradient id="paint8_linear_97_17393" x1="0.0113447" y1="29.7805" x2="38.9925" y2="29.7805" gradientUnits="userSpaceOnUse">
<stop stop-color="#E0BDFF"/>
<stop offset="0.03" stop-color="#DCB8FC"/>
<stop offset="0.32" stop-color="#B792E3"/>
<stop offset="0.59" stop-color="#9C77D1"/>
<stop offset="0.82" stop-color="#8C66C6"/>
<stop offset="1" stop-color="#8660C2"/>
</linearGradient>
<linearGradient id="paint9_linear_97_17393" x1="22.7212" y1="17.4648" x2="22.7212" y2="19.9285" gradientUnits="userSpaceOnUse">
<stop stop-color="#7541ED" stop-opacity="0.98"/>
<stop offset="1" stop-color="#7540EE" stop-opacity="0"/>
</linearGradient>
</defs>
</svg>
