<svg xmlns="http://www.w3.org/2000/svg" fill="none" viewBox="0 0 16 16"><path fill="#151515" d="M7.5.29a1 1 0 0 1 1 0l5.93 3.42c.3.18.5.51.5.87v6.84a1 1 0 0 1-.5.87L8.5 15.7a1 1 0 0 1-1 0L1.57 12.3a1 1 0 0 1-.5-.87V4.58a1 1 0 0 1 .5-.87L7.5.3Z"/><path fill="url(#a)" d="M14.24 3.63 8.7.45a1.39 1.39 0 0 0-1.37 0L1.77 3.63a1.38 1.38 0 0 0-.7 1.19v6.36a1.37 1.37 0 0 0 .7 1.19l5.55 3.18a1.4 1.4 0 0 0 1.37 0l5.55-3.18a1.38 1.38 0 0 0 .7-1.19V4.82a1.36 1.36 0 0 0-.7-1.19Zm-6.82-3a1.18 1.18 0 0 1 1.16 0l1.59.9.17.62c-.87.5-1.68 1.12-2.4 1.82-.73-.7-1.54-1.31-2.41-1.82l.14-.53 1.75-1Zm7.3 5.18-.86-.24a18 18 0 0 0 .7-1.33c.11.17.16.37.16.58v1Zm0 4.32c-.26.09-.52.16-.77.23l-.31-.57a11.7 11.7 0 0 0-1.4-1.87l-.08-.08c.64-.68 1.2-1.42 1.67-2.23.29.08.59.16.9.26v4.26Zm-.14 1.61-.05-.13-.11-.27a10.84 10.84 0 0 0-.44-.94l.74-.21v1c0 .2-.05.39-.14.56Zm-13.3-1.52c.25.08.47.15.68.2-.21.4-.41.8-.59 1.21-.06-.14-.1-.3-.1-.45v-.96Zm0-4.39.77-.22c.48.83 1.06 1.6 1.72 2.29A10.8 10.8 0 0 0 2 10.37c-.22-.05-.45-.12-.71-.2V5.83Zm3.79-.63c0 .5.05 1.02.15 1.52-.51.32-.99.7-1.4 1.14A11.95 11.95 0 0 1 2.1 5.6c.97-.25 1.97-.39 2.97-.4Zm.45-3C6.4 2.7 7.2 3.32 7.9 4c-.4.41-.76.86-1.07 1.34a7.68 7.68 0 0 0-1.71-.2c.01-.99.14-1.97.4-2.93Zm4.84 0c.25.97.39 1.95.4 2.95-.58 0-1.15.06-1.71.2-.3-.49-.67-.94-1.07-1.34.71-.7 1.51-1.3 2.38-1.8Zm.47 3c1 .01 1.99.15 2.95.4-.47.8-1.02 1.53-1.66 2.2a7.13 7.13 0 0 0-1.45-1.14c.1-.48.14-.97.14-1.46h.02Zm-.02 5.6a7.5 7.5 0 0 0-.2-1.7c.43-.26.83-.57 1.2-.9l.07.07a13.8 13.8 0 0 1 1.77 2.17c-.93.23-1.88.35-2.84.36Zm-.42 3.07.41.23-.56.33.15-.56Zm-.03-.08c-.87-.5-1.67-1.1-2.38-1.8.4-.4.76-.85 1.07-1.34.56.14 1.14.2 1.71.2 0 1-.15 1.98-.4 2.94Zm-4.84 0c-.25-.96-.39-1.94-.4-2.94.58 0 1.16-.06 1.72-.2.3.49.66.94 1.07 1.34-.72.7-1.52 1.3-2.39 1.8Zm-3.35-3.37c.53-.83 1.15-1.6 1.86-2.28.38.36.8.68 1.24.96a7.5 7.5 0 0 0-.2 1.7c-.98-.01-1.95-.14-2.9-.38Zm4.2-.85a4.55 4.55 0 0 1-.19-.66 2.06 2.06 0 0 0 .77.82c-.2-.04-.4-.1-.59-.16Zm.67-3.11.15-.03.28-.03.27-.02H8c.3 0 .6.04.88.1a1.76 1.76 0 0 1 .7.84c.08.21.12.43.12.66A1.72 1.72 0 0 1 8.66 9.6a1.78 1.78 0 0 1-2.49-1.83 1.76 1.76 0 0 1 .87-1.32Zm3.11 1.5.03.04-.03.06v-.11Zm-4.1.64a4.69 4.69 0 0 1-.34-.6c.1-.2.2-.38.32-.56a2.02 2.02 0 0 0 .02 1.16Zm3.45.87.09-.1-.07.2a4.7 4.7 0 0 1-.25.08l.22-.19Zm.17-.19c.25-.31.42-.69.47-1.08l.07-.14c.15.33.26.67.35 1.02-.3.18-.63.34-.97.46l.07-.26h.01Zm.54-1.34-.06-.11a2.08 2.08 0 0 0-.4-1.07c.12.05.24.1.36.17l.39.23c-.08.26-.18.52-.3.78ZM6.2 7l.08-.33.2-.07c-.12.12-.21.26-.3.4h.01Zm-.1.2-.03.07c-.15.21-.28.44-.4.67a5.57 5.57 0 0 1-.3-.83 5.57 5.57 0 0 1 .85-.41c-.05.16-.1.33-.13.5h.01Zm-.43.86c.12.25.26.48.42.7.05.27.12.53.21.79a5.6 5.6 0 0 1-.97-.47c.08-.35.2-.7.34-1.02Zm-.36 1.07c.32.2.65.35 1 .48.13.35.3.68.5 1-.56.13-1.13.2-1.7.2 0-.57.06-1.13.19-1.68Zm1.54 1.47c-.19-.3-.34-.63-.47-.97.23.08.47.14.71.19l.1.05.08.03c.19.13.4.24.6.35-.33.15-.67.26-1.02.35Zm.62-.64a2.1 2.1 0 0 0 .84.06l-.37.2a4.6 4.6 0 0 1-.48-.26Zm.97.04c.24-.04.47-.13.68-.26l.37-.1c-.13.33-.29.65-.48.96-.34-.09-.69-.2-1.01-.35.15-.08.3-.16.43-.25h.01Zm1.11-.4c.36-.12.7-.28 1.01-.47.13.55.2 1.1.2 1.67-.57 0-1.14-.06-1.7-.2.2-.3.36-.64.49-1Zm1.05-.55A5.78 5.78 0 0 0 10.24 8c.12-.26.23-.54.3-.82.45.29.86.61 1.23.98-.36.33-.75.63-1.17.89h.01Zm-.26-2.56a5.57 5.57 0 0 0-.89-.37 5.6 5.6 0 0 0-.38-.72c.56-.13 1.12-.2 1.69-.2 0 .49-.05.97-.14 1.44l-.29-.15h.01ZM9.02 5.4c.14.22.26.46.36.7l-.16-.05c-.31-.08-.63-.13-.95-.15L8 5.76c.33-.15.67-.27 1.02-.35Zm-.86.5H7.7l.24-.12.22.1v.01Zm-.58 0-.17.02-.3.05a4.27 4.27 0 0 0-.63.15c.1-.25.23-.5.38-.72.35.08.69.2 1.02.35l-.3.15Zm-1.17.25a5.13 5.13 0 0 0-1.15.53c-.1-.49-.15-.99-.15-1.48.57 0 1.13.06 1.69.19-.15.24-.28.49-.39.75Zm-1.08.98c.08.3.19.59.32.87a5.6 5.6 0 0 0-.37 1.04 7.46 7.46 0 0 1-1.22-.94c.38-.37.8-.7 1.27-.98Zm1.56 3.5c.36-.08.71-.2 1.05-.36.33.16.69.28 1.05.37-.3.47-.66.91-1.06 1.31-.4-.4-.75-.84-1.04-1.32Zm2.1-5.28c-.36.1-.71.21-1.05.37-.34-.16-.7-.28-1.06-.37.3-.47.66-.91 1.06-1.31.4.4.75.83 1.05 1.3v.01Zm-7.71.42v-.96c0-.16.03-.31.1-.45.2.42.42.83.64 1.2-.23.05-.47.12-.74.2v.01Zm.86 4.69c.96.24 1.94.38 2.93.39.01 1 .15 2 .4 2.97l-.38.21-3.22-1.85c-.2-.11-.36-.28-.46-.48.22-.43.47-.84.73-1.25Zm3.35 3.4.13.47-.47-.27.34-.2Zm.05-.02a12 12 0 0 0 2.4-1.82c.73.7 1.54 1.32 2.41 1.82l-.17.62-1.59.9a1.18 1.18 0 0 1-1.17 0l-1.73-1c-.07-.19-.11-.36-.16-.52Zm5.31.23-.44-.25c.26-.97.4-1.97.4-2.97h.02a12.1 12.1 0 0 0 2.85-.38l.3.45.3.48.15.25.08.12.02.04c-.1.15-.23.28-.39.37l-3.29 1.89Zm2.96-8.52c-.98-.26-1.98-.4-2.98-.41h-.02c0-1-.14-2-.4-2.97l.44-.25 3.3 1.88c.15.1.29.22.39.38-.24.48-.48.94-.74 1.36Zm-3.42-3.43-.15-.56.56.33-.41.23Zm-4.9 0-.34-.2.47-.27c-.05.15-.1.31-.13.47Zm-.4-.17.38.22a12 12 0 0 0-.4 2.97c-1.01.01-2.02.15-3 .4-.23-.38-.45-.8-.67-1.24.1-.2.26-.38.46-.5L5.1 1.97Z"/><defs><linearGradient id="a" x1="8" x2="8" y1=".27" y2="15.73" gradientUnits="userSpaceOnUse"><stop stop-color="#E0BDFF"/><stop offset="1" stop-color="#8660C2"/></linearGradient></defs></svg>